<?xml version="1.0" encoding="UTF-8"?>
<svg id="a" data-name="Layer 1" xmlns="http://www.w3.org/2000/svg" xmlns:xlink="http://www.w3.org/1999/xlink" viewBox="0 0 1642.4 524.38">
  <defs>
    <linearGradient id="b" x1="487.03" y1="262.19" x2="0" y2="262.19" gradientUnits="userSpaceOnUse">
      <stop offset="0" stop-color="#098fb4"/>
      <stop offset=".92" stop-color="#206ae2"/>
      <stop offset=".99" stop-color="#2367e7"/>
    </linearGradient>
    <linearGradient id="d" x1="49.85" y1="360.29" x2="49.85" y2="164.09" gradientUnits="userSpaceOnUse">
      <stop offset="0" stop-color="#ea580c"/>
      <stop offset=".22" stop-color="#eb610b"/>
      <stop offset=".59" stop-color="#ef7a0b"/>
      <stop offset="1" stop-color="#f59e0b"/>
    </linearGradient>
    <linearGradient id="e" x1="769.79" y1="175.48" x2="769.79" y2="345.45" xlink:href="#b"/>
    <linearGradient id="f" x1="1615.26" y1="345.45" x2="1615.26" y2="179.85" xlink:href="#d"/>
  </defs>
  <g>
    <path id="c" data-name="shap" d="m425,154.74L186.1,16.82c-38.84-22.42-85.22-22.42-124.07,0C23.19,39.24,0,79.4,0,124.26h0c0,2.96,2.4,5.36,5.36,5.36h88.97c2.96,0,5.36-2.4,5.36-5.36h0c0-12.7,8.52-18.99,12.18-21.11,2.23-1.29,6.69-3.35,12.31-3.35,3.63,0,7.75.86,12.06,3.35l238.9,137.93c10.99,6.35,12.18,16.88,12.18,21.11s-1.2,14.75-12.18,21.11l-238.9,137.93c-11,6.34-20.71,2.11-24.38,0-3.66-2.11-12.18-8.4-12.18-21.11h0c0-2.96-2.4-5.36-5.36-5.36H5.36c-2.96,0-5.36,2.4-5.36,5.36h0c0,44.85,23.19,85.02,62.03,107.44,19.42,11.22,40.73,16.82,62.04,16.82s42.61-5.6,62.03-16.82l238.9-137.93c38.84-22.42,62.03-62.59,62.03-107.44s-23.19-85.02-62.03-107.44Z" style="fill: url(#b);"/>
    <rect y="164.09" width="99.7" height="196.2" rx="5.38" ry="5.38" style="fill: url(#d);"/>
  </g>
  <g>
    <path d="m567.62,345.45v-165.6h72.68c53.36,0,86.48,24.84,86.48,79.35,0,62.33-34.73,86.25-87.86,86.25h-71.3Zm54.28-38.64h11.5c25.3,0,39.1-13.34,39.1-44.62,0-34.5-11.27-43.7-40.25-43.7h-10.35v88.32Z" style="fill: #232323;"/>
    <path d="m745.87,175.48h47.84v34.04h-47.84v-34.04Zm0,169.97v-120.52h47.84v120.52h-47.84Z" style="fill: url(#e);"/>
    <path d="m820.16,224.93h43.47v24.38h.46c6.67-18.86,18.4-27.83,37.03-27.83,2.07,0,4.14.46,6.21.69v47.84c-3.22-.46-6.67-1.38-9.89-1.38-19.55,0-29.44,9.2-29.44,35.19v41.63h-47.84v-120.52Z" style="fill: #232323;"/>
    <path d="m961.15,296c0,14.26,11.04,23.69,23.69,23.69,7.59,0,14.49-3.45,17.94-10.58h45.77c-8.28,29.9-38.64,39.79-66.7,39.79-38.64,0-68.54-22.08-68.54-62.56s29.67-64.86,68.31-64.86c44.62,0,71.53,30.82,70.84,74.52h-91.31Zm43.47-24.38c0-11.04-9.89-20.93-21.16-20.93-14.26,0-22.31,8.05-22.31,20.93h43.47Z" style="fill: #232323;"/>
    <path d="m1153.2,270.93c-.23-5.29-2.07-9.43-5.06-12.42-2.99-3.22-7.13-4.83-12.42-4.83-17.94,0-20.93,18.63-20.93,32.89,0,18.17,6.9,30.13,20.93,30.13,12.42,0,17.25-8.51,18.63-17.94h48.3c-4.14,36.57-33.58,50.14-66.93,50.14-38.87,0-68.77-21.85-68.77-62.56s28.98-64.86,68.77-64.86c32.2,0,62.56,13.8,66.01,49.45h-48.53Z" style="fill: #232323;"/>
    <path d="m1303.61,345.45c-62.79,3.45-70.38-.92-70.38-42.55v-50.37h-17.02v-27.6h17.71v-37.49h47.15v37.49h23v27.6h-23v43.7c0,11.04,1.61,14.95,14.95,14.95h7.59v34.27Z" style="fill: #232323;"/>
    <path d="m1394.23,345.45l59.34-165.6h55.2l59.34,165.6h-54.05l-6.44-21.85h-54.05l-6.21,21.85h-53.13Zm86.48-115.69l-16.79,59.34h34.27l-17.48-59.34Z" style="fill: #232323;"/>
    <path d="m1588.12,345.45v-165.6h54.28v165.6h-54.28Z" style="fill: url(#f);"/>
  </g>
</svg>