<?xml version="1.0" encoding="UTF-8"?>
<svg id="a" data-name="Layer 1" xmlns="http://www.w3.org/2000/svg" xmlns:xlink="http://www.w3.org/1999/xlink" viewBox="0 0 3283.4 1135.6">
  <defs>
    <linearGradient id="b" x1="2345.61" y1="1037.93" x2="2345.61" y2="1135.6" gradientUnits="userSpaceOnUse">
      <stop offset="0" stop-color="#ea580c"/>
      <stop offset=".22" stop-color="#eb610b"/>
      <stop offset=".59" stop-color="#ef7a0b"/>
      <stop offset="1" stop-color="#f59e0b"/>
    </linearGradient>
    <linearGradient id="c" x1="2345.69" y1="0" x2="2345.69" y2="1124.51" gradientUnits="userSpaceOnUse">
      <stop offset="0" stop-color="#0a8eb5"/>
      <stop offset="1" stop-color="#1d71da"/>
    </linearGradient>
    <linearGradient id="d" x1="3126.17" y1="1135.6" x2="3126.17" y2="176.3" xlink:href="#b"/>
    <linearGradient id="e" x1="3126.17" y1="144.54" x2="3126.17" y2="0" gradientUnits="userSpaceOnUse">
      <stop offset="0" stop-color="#0a8eb6"/>
      <stop offset="1" stop-color="#0a8eb5"/>
    </linearGradient>
  </defs>
  <g>
    <path d="m2490.96,1135.6h-290.71c-7.27,0-12.47-7.03-10.35-13.98l23.19-76.03c1.39-4.55,5.59-7.67,10.35-7.67h243.46c4.72,0,8.9,3.06,10.32,7.56l24.06,76.03c2.21,6.98-3,14.09-10.32,14.09Z" style="fill: url(#b);"/>
    <path d="m2874.35,701.68l-297.17-557.05C2528.86,54.07,2442.32,0,2345.68,0s-183.18,54.07-231.48,144.63l-297.19,557.05c-48.3,90.56-48.3,198.7,0,289.29,48.32,90.56,134.86,144.63,231.5,144.63.76,0,1.51-.08,2.23-.24,3.48-.75,7.09-.65,10.64-.35,4.55.38,9.16.58,13.83.58h53.14c14.89,0,27.98-9.88,32.05-24.21l22.21-78.15c4.07-14.33,17.15-24.21,32.05-24.21h263.04c14.77,0,27.78,9.73,31.96,23.9l23.22,78.78c4.18,14.17,17.18,23.9,31.96,23.9h57.97c3.95,0,7.86-.14,11.71-.41,2.32-.16,4.64,0,6.94.31.46.06.92.09,1.4.09,96.64,0,183.2-54.07,231.5-144.63,24.16-45.29,36.23-94.95,36.23-144.65s-12.07-99.36-36.23-144.63Zm-495.03-125.59l56.07,190.35c6.29,21.34-9.71,42.73-31.96,42.73h-109.93c-22.1,0-38.07-21.12-32.06-42.38l53.86-190.35c9.1-32.15,54.57-32.39,64.01-.34Z" style="fill: url(#c);"/>
  </g>
  <g>
    <path d="m2968.95,1083.44V228.46c0-28.81,23.35-52.16,52.16-52.16h210.11c28.81,0,52.16,23.35,52.16,52.16v854.98c0,28.81-23.35,52.16-52.16,52.16h-210.11c-28.81,0-52.16-23.35-52.16-52.16Z" style="fill: url(#d);"/>
    <path d="m2968.95,103.08v-61.61C2968.95,18.57,2987.52,0,3010.41,0h231.52c22.9,0,41.46,18.56,41.46,41.46v61.61c0,22.9-18.56,41.46-41.46,41.46h-231.52c-22.9,0-41.46-18.56-41.46-41.46Z" style="fill: url(#e);"/>
  </g>
</svg>